<svg width="233" height="91" viewBox="0 0 233 91" fill="none" xmlns="http://www.w3.org/2000/svg">
<path d="M24.304 72.96C19.248 72.96 14.672 71.936 10.576 69.888C6.544 67.84 3.248 64.896 0.688 61.056L8.656 53.376C10.768 55.872 13.328 57.92 16.336 59.52C19.344 61.12 22.16 61.92 24.784 61.92C27.728 61.92 30.096 61.248 31.888 59.904C33.68 58.56 34.576 56.8 34.576 54.624C34.576 53.024 34.288 51.712 33.712 50.688C33.136 49.664 32.048 48.64 30.448 47.616C28.848 46.528 26.224 45.088 22.576 43.296C17.776 40.928 14 38.72 11.248 36.672C8.496 34.624 6.448 32.416 5.104 30.048C3.824 27.616 3.184 24.8 3.184 21.6C3.184 18.08 4.112 14.976 5.968 12.288C7.824 9.6 10.448 7.52 13.84 6.048C17.232 4.576 21.136 3.84 25.552 3.84C30.416 3.84 34.704 4.768 38.416 6.62399C42.192 8.48 44.944 11.04 46.672 14.304L37.936 20.832C34.736 16.864 30.8 14.88 26.128 14.88C23.184 14.88 20.912 15.456 19.312 16.608C17.712 17.76 16.912 19.392 16.912 21.504C16.912 22.784 17.296 23.936 18.064 24.96C18.896 25.984 20.368 27.104 22.48 28.32C24.592 29.536 27.76 31.136 31.984 33.12C36.08 35.04 39.28 36.96 41.584 38.88C43.952 40.8 45.648 42.944 46.672 45.312C47.696 47.68 48.208 50.496 48.208 53.76C48.208 57.6 47.216 60.992 45.232 63.936C43.312 66.816 40.528 69.056 36.88 70.656C33.296 72.192 29.104 72.96 24.304 72.96ZM67.291 72.96C64.155 72.96 61.339 72.32 58.843 71.04C56.347 69.696 54.395 67.872 52.987 65.568C51.579 63.2 50.875 60.576 50.875 57.696C50.875 52.768 52.827 48.992 56.731 46.368C60.635 43.744 66.203 42.432 73.435 42.432H80.923V40.416C80.923 37.856 80.155 35.904 78.619 34.56C77.147 33.152 75.035 32.448 72.283 32.448C69.403 32.448 66.651 32.96 64.027 33.984C61.403 35.008 59.259 36.416 57.595 38.208L52.219 31.104C54.843 28.608 57.947 26.656 61.531 25.248C65.115 23.776 68.827 23.04 72.667 23.04C79.067 23.04 84.091 24.544 87.739 27.552C91.387 30.56 93.211 34.72 93.211 40.032V61.92C93.211 63.392 93.307 65.12 93.499 67.104C93.755 69.088 94.043 70.72 94.363 72H83.515C83.131 71.168 82.843 70.368 82.651 69.6C82.459 68.768 82.299 67.648 82.171 66.24H81.979C78.331 70.72 73.435 72.96 67.291 72.96ZM70.267 63.744C73.339 63.744 75.867 62.976 77.851 61.44C79.899 59.84 80.923 57.824 80.923 55.392V50.592H73.051C69.787 50.592 67.259 51.2 65.467 52.416C63.739 53.632 62.875 55.392 62.875 57.696C62.875 59.616 63.515 61.12 64.795 62.208C66.139 63.232 67.963 63.744 70.267 63.744ZM143.159 24L124.824 74.208C122.839 79.584 120.087 83.616 116.567 86.304C113.111 89.056 108.951 90.432 104.087 90.432C101.527 90.432 98.9035 90.08 96.2155 89.376V79.68C96.9835 79.936 97.9435 80.16 99.0955 80.352C100.247 80.544 101.271 80.64 102.167 80.64C104.983 80.64 107.383 79.648 109.367 77.664C111.415 75.744 113.239 72.672 114.839 68.448L96.9835 24H110.039L120.599 54.72L130.103 24H143.159ZM178.572 72L164.364 49.632L158.604 55.296V72H146.316V0.767996H158.604V40.608L175.5 24H190.572L172.812 41.376L192.396 72H178.572ZM205.276 72.96C202.14 72.96 199.324 72.32 196.828 71.04C194.332 69.696 192.38 67.872 190.972 65.568C189.564 63.2 188.86 60.576 188.86 57.696C188.86 52.768 190.812 48.992 194.716 46.368C198.62 43.744 204.188 42.432 211.42 42.432H218.908V40.416C218.908 37.856 218.14 35.904 216.604 34.56C215.132 33.152 213.02 32.448 210.268 32.448C207.388 32.448 204.636 32.96 202.012 33.984C199.388 35.008 197.244 36.416 195.58 38.208L190.204 31.104C192.828 28.608 195.932 26.656 199.516 25.248C203.1 23.776 206.812 23.04 210.652 23.04C217.052 23.04 222.076 24.544 225.724 27.552C229.372 30.56 231.196 34.72 231.196 40.032V61.92C231.196 63.392 231.292 65.12 231.484 67.104C231.74 69.088 232.028 70.72 232.348 72H221.5C221.116 71.168 220.828 70.368 220.636 69.6C220.444 68.768 220.284 67.648 220.156 66.24H219.964C216.316 70.72 211.42 72.96 205.276 72.96ZM208.252 63.744C211.324 63.744 213.852 62.976 215.836 61.44C217.884 59.84 218.908 57.824 218.908 55.392V50.592H211.036C207.772 50.592 205.244 51.2 203.452 52.416C201.724 53.632 200.86 55.392 200.86 57.696C200.86 59.616 201.5 61.12 202.78 62.208C204.124 63.232 205.948 63.744 208.252 63.744Z" fill="black"/>
</svg>
